<svg xmlns="http://www.w3.org/2000/svg" viewBox="0 0 200 280">
  <path fill="#06b6d4" d="M116.214 5.31161C114.559 18.2955 113.099 33.3943 111.834 50.6078C110.569 67.8214 109.595 85.8218 108.914 104.609C108.33 123.298 108.038 141.446 108.038 159.053C108.038 171.447 108.281 184.382 108.768 197.857C109.352 211.235 110.082 223.776 110.958 235.481C111.834 247.186 112.807 256.58 113.878 263.662C110.763 264.843 106.383 266.367 100.738 268.236C95.1902 270.105 90.7129 271.728 87.3063 273.105C86.2357 272.515 85.311 271.876 84.5324 271.187C83.7537 270.499 82.8777 269.613 81.9044 268.531C83.6564 257.22 85.165 243.99 86.4303 228.842C87.793 213.694 88.815 197.611 89.4963 180.595C90.2749 163.578 90.6643 146.561 90.6643 129.544C90.6643 116.068 90.3723 102.101 89.7883 87.6415C89.3016 73.1822 88.5716 59.2638 87.5983 45.8864C86.625 32.4106 85.5057 20.4595 84.2404 10.033C88.9123 7.96741 93.8762 6.04933 99.1321 4.2788C104.388 2.50826 108.719 1.08199 112.126 0C112.807 0.590179 113.586 1.47545 114.462 2.6558C115.435 3.83616 116.019 4.72143 116.214 5.31161ZM172.715 62.5589C175.343 68.1656 177.338 74.9527 178.701 82.9201C180.161 90.8875 180.891 98.3631 180.891 105.347C180.891 116.265 179.236 127.724 175.927 139.725C172.617 151.627 167.556 162.742 160.743 173.07C154.027 183.398 145.462 191.808 135.047 198.3C124.633 204.694 112.369 207.89 98.2561 207.89C83.2671 207.89 70.8086 205.874 60.8808 201.841C50.953 197.808 43.0692 192.398 37.2293 185.611C31.4867 178.824 27.3988 171.25 24.9655 162.889C22.6296 154.528 21.4616 145.971 21.4616 137.217C21.4616 130.528 21.8022 123.397 22.4836 115.823C23.1649 108.249 23.5055 100.921 23.5055 93.8384C23.5055 89.2153 22.0456 85.4775 19.1256 82.625C16.2057 79.6741 9.83048 77.8544 0 77.1659V69.7886C8.85716 68.805 16.887 67.4771 24.0895 65.8049C31.2921 64.1327 37.0833 62.2147 41.4632 60.0507C43.7992 61.0343 45.7945 62.9524 47.4491 65.8049C49.2011 68.6574 50.077 74.2641 50.077 82.625C50.077 90.1006 49.6877 98.1664 48.9091 106.822C48.2277 115.478 47.8871 123.397 47.8871 130.577C47.8871 141.79 49.5417 151.922 52.851 160.971C56.1603 169.922 61.8541 177.054 69.9327 182.365C78.1085 187.578 89.4963 190.185 104.096 190.185C114.997 190.185 124.292 187.037 131.981 180.742C139.768 174.447 145.705 166.086 149.793 155.66C153.978 145.233 156.071 133.971 156.071 121.872C156.071 113.413 154.66 104.757 151.837 95.904C149.014 86.953 144.878 80.2643 139.427 75.838C142.931 73.3789 147.311 70.5755 152.567 67.4279C157.92 64.2803 162.398 61.7228 165.999 59.7556C167.264 60.3458 168.335 60.8376 169.211 61.231C170.184 61.6245 171.352 62.0671 172.715 62.5589Z"/>
</svg>
